<svg data-v-fde0c5aa="" xmlns="http://www.w3.org/2000/svg" viewBox="0 0 300 300" class="iconLeft"><!----><defs data-v-fde0c5aa=""><!----></defs><rect data-v-fde0c5aa="" fill="transparent" x="0" y="0" width="300px" height="300px" class="logo-background-square"></rect><defs data-v-fde0c5aa=""><!----></defs><g data-v-fde0c5aa="" id="7e13802a-fb12-41ce-8f35-287176281989" fill="#000000" transform="matrix(3.102618192698123,0,0,3.102618192698123,92.8619560952531,128.56090765229519)"><path d="M4.51 4.59L4.51 4.59Q5.57 4.59 5.57 5.05L5.57 5.05L5.57 5.05Q5.57 5.12 5.56 5.17L5.56 5.17L5.56 5.17Q5.52 5.32 5.42 5.38L5.42 5.38L5.42 5.38Q5.33 5.45 5.18 5.45L5.18 5.45L5.18 5.45Q5.05 5.45 4.85 5.42L4.85 5.42L4.85 5.42Q4.65 5.39 4.51 5.39L4.51 5.39L4.51 5.39Q3.81 5.39 3.26 5.68L3.26 5.68L3.26 5.68Q2.72 5.98 2.41 6.50L2.41 6.50L2.41 6.50Q2.10 7.01 2.10 7.66L2.10 7.66L2.10 11.91L2.10 11.91Q2.10 12.10 1.99 12.21L1.99 12.21L1.99 12.21Q1.88 12.33 1.68 12.33L1.68 12.33L1.68 12.33Q1.50 12.33 1.38 12.21L1.38 12.21L1.38 12.21Q1.26 12.10 1.26 11.91L1.26 11.91L1.26 5.10L1.26 5.10Q1.26 4.90 1.38 4.79L1.38 4.79L1.38 4.79Q1.50 4.68 1.68 4.68L1.68 4.68L1.68 4.68Q1.88 4.68 1.99 4.79L1.99 4.79L1.99 4.79Q2.10 4.90 2.10 5.10L2.10 5.10L2.10 5.96L2.10 5.96Q2.51 5.32 3.14 4.96L3.14 4.96L3.14 4.96Q3.77 4.59 4.51 4.59L4.51 4.59ZM10.57 4.61L10.57 4.61Q11.59 4.61 12.40 5.09L12.40 5.09L12.40 5.09Q13.20 5.57 13.65 6.43L13.65 6.43L13.65 6.43Q14.10 7.28 14.10 8.37L14.10 8.37L14.10 8.37Q14.10 8.55 13.99 8.66L13.99 8.66L13.99 8.66Q13.87 8.76 13.69 8.76L13.69 8.76L7.83 8.76L7.83 8.76Q7.87 9.59 8.26 10.24L8.26 10.24L8.26 10.24Q8.65 10.89 9.31 11.26L9.31 11.26L9.31 11.26Q9.97 11.62 10.78 11.62L10.78 11.62L10.78 11.62Q11.33 11.62 11.88 11.43L11.88 11.43L11.88 11.43Q12.43 11.24 12.75 10.93L12.75 10.93L12.75 10.93Q12.89 10.82 13.05 10.82L13.05 10.82L13.05 10.82Q13.20 10.82 13.30 10.91L13.30 10.91L13.30 10.91Q13.45 11.03 13.45 11.20L13.45 11.20L13.45 11.20Q13.45 11.34 13.33 11.47L13.33 11.47L13.33 11.47Q12.88 11.87 12.16 12.14L12.16 12.14L12.16 12.14Q11.44 12.40 10.78 12.40L10.78 12.40L10.78 12.40Q9.67 12.40 8.81 11.91L8.81 11.91L8.81 11.91Q7.95 11.41 7.46 10.52L7.46 10.52L7.46 10.52Q6.97 9.63 6.97 8.51L6.97 8.51L6.97 8.51Q6.97 7.38 7.43 6.49L7.43 6.49L7.43 6.49Q7.88 5.60 8.70 5.10L8.70 5.10L8.70 5.10Q9.52 4.61 10.57 4.61L10.57 4.61ZM10.57 5.39L10.57 5.39Q9.48 5.39 8.73 6.12L8.73 6.12L8.73 6.12Q7.98 6.85 7.84 8.04L7.84 8.04L13.29 8.04L13.29 8.04Q13.19 6.85 12.45 6.12L12.45 6.12L12.45 6.12Q11.70 5.39 10.57 5.39L10.57 5.39ZM22.90 1.40L22.90 1.40Q23.10 1.40 23.21 1.51L23.21 1.51L23.21 1.51Q23.32 1.62 23.32 1.82L23.32 1.82L23.32 8.55L23.32 8.58L23.32 8.58Q23.31 9.66 22.79 10.54L22.79 10.54L22.79 10.54Q22.27 11.42 21.39 11.92L21.39 11.92L21.39 11.92Q20.50 12.42 19.42 12.42L19.42 12.42L19.42 12.42Q18.31 12.42 17.42 11.91L17.42 11.91L17.42 11.91Q16.52 11.40 16.01 10.50L16.01 10.50L16.01 10.50Q15.50 9.60 15.50 8.50L15.50 8.50L15.50 8.50Q15.50 7.41 16.01 6.51L16.01 6.51L16.01 6.51Q16.52 5.61 17.42 5.10L17.42 5.10L17.42 5.10Q18.31 4.59 19.42 4.59L19.42 4.59L19.42 4.59Q20.41 4.59 21.22 5.02L21.22 5.02L21.22 5.02Q22.02 5.45 22.48 6.19L22.48 6.19L22.48 1.82L22.48 1.82Q22.48 1.62 22.60 1.51L22.60 1.51L22.60 1.51Q22.72 1.40 22.90 1.40L22.90 1.40ZM19.42 11.63L19.42 11.63Q20.29 11.63 20.99 11.22L20.99 11.22L20.99 11.22Q21.69 10.81 22.09 10.09L22.09 10.09L22.09 10.09Q22.48 9.38 22.48 8.50L22.48 8.50L22.48 8.50Q22.48 7.62 22.09 6.90L22.09 6.90L22.09 6.90Q21.69 6.19 20.99 5.78L20.99 5.78L20.99 5.78Q20.29 5.38 19.42 5.38L19.42 5.38L19.42 5.38Q18.55 5.38 17.85 5.78L17.85 5.78L17.85 5.78Q17.15 6.19 16.74 6.90L16.74 6.90L16.74 6.90Q16.34 7.62 16.34 8.50L16.34 8.50L16.34 8.50Q16.34 9.38 16.74 10.09L16.74 10.09L16.74 10.09Q17.15 10.81 17.85 11.22L17.85 11.22L17.85 11.22Q18.55 11.63 19.42 11.63L19.42 11.63ZM33.92 4.58L33.92 4.58Q34.76 4.58 35.42 5.00L35.42 5.00L35.42 5.00Q36.08 5.42 36.44 6.17L36.44 6.17L36.44 6.17Q36.81 6.92 36.81 7.87L36.81 7.87L36.81 11.91L36.81 11.91Q36.81 12.10 36.69 12.21L36.69 12.21L36.69 12.21Q36.58 12.33 36.39 12.33L36.39 12.33L36.39 12.33Q36.20 12.33 36.09 12.21L36.09 12.21L36.09 12.21Q35.97 12.10 35.97 11.91L35.97 11.91L35.97 7.87L35.97 7.87Q35.97 6.79 35.39 6.10L35.39 6.10L35.39 6.10Q34.82 5.42 33.92 5.42L33.92 5.42L33.92 5.42Q32.94 5.42 32.34 6.06L32.34 6.06L32.34 6.06Q31.74 6.71 31.77 7.77L31.77 7.77L31.77 7.87L31.77 11.91L31.77 11.91Q31.77 12.10 31.65 12.21L31.65 12.21L31.65 12.21Q31.54 12.33 31.35 12.33L31.35 12.33L31.35 12.33Q31.16 12.33 31.05 12.21L31.05 12.21L31.05 12.21Q30.93 12.10 30.93 11.91L30.93 11.91L30.93 7.87L30.93 7.87Q30.93 6.79 30.35 6.10L30.35 6.10L30.35 6.10Q29.78 5.42 28.88 5.42L28.88 5.42L28.88 5.42Q27.92 5.42 27.30 6.03L27.30 6.03L27.30 6.03Q26.68 6.65 26.68 7.63L26.68 7.63L26.68 11.91L26.68 11.91Q26.68 12.10 26.57 12.21L26.57 12.21L26.57 12.21Q26.46 12.33 26.26 12.33L26.26 12.33L26.26 12.33Q26.08 12.33 25.96 12.21L25.96 12.21L25.96 12.21Q25.84 12.10 25.84 11.91L25.84 11.91L25.84 5.10L25.84 5.10Q25.84 4.90 25.96 4.79L25.96 4.79L25.96 4.79Q26.08 4.68 26.26 4.68L26.26 4.68L26.26 4.68Q26.46 4.68 26.57 4.79L26.57 4.79L26.57 4.79Q26.68 4.90 26.68 5.10L26.68 5.10L26.68 5.64L26.68 5.64Q27.08 5.14 27.65 4.86L27.65 4.86L27.65 4.86Q28.22 4.58 28.88 4.58L28.88 4.58L28.88 4.58Q29.69 4.58 30.34 4.98L30.34 4.98L30.34 4.98Q30.98 5.38 31.36 6.08L31.36 6.08L31.36 6.08Q31.74 5.38 32.41 4.98L32.41 4.98L32.41 4.98Q33.08 4.58 33.92 4.58L33.92 4.58ZM39.47 5.10L39.47 5.10Q39.47 4.90 39.59 4.79L39.59 4.79L39.59 4.79Q39.70 4.68 39.89 4.68L39.89 4.68L39.89 4.68Q40.08 4.68 40.19 4.79L40.19 4.79L40.19 4.79Q40.31 4.90 40.31 5.10L40.31 5.10L40.31 11.91L40.31 11.91Q40.31 12.10 40.19 12.21L40.19 12.21L40.19 12.21Q40.08 12.33 39.89 12.33L39.89 12.33L39.89 12.33Q39.70 12.33 39.59 12.21L39.59 12.21L39.59 12.21Q39.47 12.10 39.47 11.91L39.47 11.91L39.47 5.10ZM39.89 1.76L39.89 1.76Q40.15 1.76 40.34 1.93L40.34 1.93L40.34 1.93Q40.53 2.10 40.53 2.41L40.53 2.41L40.53 2.41Q40.53 2.69 40.34 2.88L40.34 2.88L40.34 2.88Q40.15 3.07 39.87 3.07L39.87 3.07L39.87 3.07Q39.59 3.07 39.41 2.88L39.41 2.88L39.41 2.88Q39.23 2.69 39.23 2.41L39.23 2.41L39.23 2.41Q39.23 2.10 39.42 1.93L39.42 1.93L39.42 1.93Q39.62 1.76 39.89 1.76L39.89 1.76ZM46.61 4.58L46.61 4.58Q47.63 4.58 48.43 5.00L48.43 5.00L48.43 5.00Q49.24 5.42 49.69 6.22L49.69 6.22L49.69 6.22Q50.15 7.03 50.15 8.15L50.15 8.15L50.15 11.91L50.15 11.91Q50.15 12.10 50.03 12.21L50.03 12.21L50.03 12.21Q49.91 12.33 49.73 12.33L49.73 12.33L49.73 12.33Q49.55 12.33 49.43 12.21L49.43 12.21L49.43 12.21Q49.31 12.10 49.31 11.91L49.31 11.91L49.31 8.15L49.31 8.15Q49.31 6.82 48.56 6.12L48.56 6.12L48.56 6.12Q47.81 5.42 46.61 5.42L46.61 5.42L46.61 5.42Q45.86 5.42 45.26 5.70L45.26 5.70L45.26 5.70Q44.65 5.99 44.30 6.50L44.30 6.50L44.30 6.50Q43.95 7.01 43.95 7.63L43.95 7.63L43.95 11.91L43.95 11.91Q43.95 12.10 43.83 12.21L43.83 12.21L43.83 12.21Q43.72 12.33 43.53 12.33L43.53 12.33L43.53 12.33Q43.34 12.33 43.23 12.21L43.23 12.21L43.23 12.21Q43.11 12.10 43.11 11.91L43.11 11.91L43.11 5.10L43.11 5.10Q43.11 4.90 43.23 4.79L43.23 4.79L43.23 4.79Q43.34 4.68 43.53 4.68L43.53 4.68L43.53 4.68Q43.72 4.68 43.83 4.79L43.83 4.79L43.83 4.79Q43.95 4.90 43.95 5.10L43.95 5.10L43.95 5.82L43.95 5.82Q44.42 5.24 45.11 4.91L45.11 4.91L45.11 4.91Q45.79 4.58 46.61 4.58L46.61 4.58ZM52.81 5.10L52.81 5.10Q52.81 4.90 52.93 4.79L52.93 4.79L52.93 4.79Q53.05 4.68 53.23 4.68L53.23 4.68L53.23 4.68Q53.42 4.68 53.54 4.79L53.54 4.79L53.54 4.79Q53.65 4.90 53.65 5.10L53.65 5.10L53.65 11.91L53.65 11.91Q53.65 12.10 53.54 12.21L53.54 12.21L53.54 12.21Q53.42 12.33 53.23 12.33L53.23 12.33L53.23 12.33Q53.05 12.33 52.93 12.21L52.93 12.21L52.93 12.21Q52.81 12.10 52.81 11.91L52.81 11.91L52.81 5.10ZM53.23 1.76L53.23 1.76Q53.49 1.76 53.68 1.93L53.68 1.93L53.68 1.93Q53.87 2.10 53.87 2.41L53.87 2.41L53.87 2.41Q53.87 2.69 53.68 2.88L53.68 2.88L53.68 2.88Q53.49 3.07 53.21 3.07L53.21 3.07L53.21 3.07Q52.93 3.07 52.75 2.88L52.75 2.88L52.75 2.88Q52.57 2.69 52.57 2.41L52.57 2.41L52.57 2.41Q52.57 2.10 52.77 1.93L52.77 1.93L52.77 1.93Q52.96 1.76 53.23 1.76L53.23 1.76Z"></path></g><defs data-v-fde0c5aa=""><linearGradient data-v-fde0c5aa="" gradientTransform="rotate(25)" id="46154e15-3c92-46e2-b6be-82a5decbec6d" x1="0%" y1="0%" x2="100%" y2="0%"><stop data-v-fde0c5aa="" offset="0%" stop-color="#574851" stop-opacity="1"></stop><stop data-v-fde0c5aa="" offset="100%" stop-color="#95A8B1" stop-opacity="1"></stop></linearGradient></defs><g data-v-fde0c5aa="" id="9b95aa40-836c-4046-bb50-b774c0f178ec" stroke="none" fill="url(#46154e15-3c92-46e2-b6be-82a5decbec6d)" transform="matrix(0.10016855311935291,0,0,0.10016855311935291,36.242477513564886,124.35684164569125)"><path d="M57.814 180.71l-10.094 2.958-2.856-9.549 10.1-2.958 2.85 9.431 10.095-2.958 2.857 9.549-10.1 2.957zM469.215 286.707c3.184 3.301 5.273 7.79 5.273 12.624 0 5.048-2.09 9.548-5.379 12.839l-.216.225c-3.3 3.184-7.693 5.154-12.623 5.154-4.939 0-9.548-2.09-12.84-5.379l-.105-.107c-3.302-3.291-5.167-7.792-5.167-12.731 0-4.94 1.973-9.44 5.272-12.731l.217-.214c3.3-3.183 7.684-5.167 12.623-5.167 5.048 0 9.548 2.091 12.839 5.381l.106.106zm-5.378 12.624c0-1.973-.88-3.954-2.186-5.261-1.438-1.438-3.303-2.198-5.381-2.198s-3.943.761-5.272 2.198c-1.414 1.307-2.187 3.288-2.187 5.261 0 2.09.772 4.062 2.078 5.38 1.438 1.425 3.303 2.195 5.381 2.195s3.943-.771 5.381-2.195c1.306-1.318 2.186-3.29 2.186-5.38zM441.675 47.268c2.528 1.426 3.407 4.716 1.864 7.245a5.096 5.096 0 0 1-1.864 1.864l-19.419 11.188c-2.528 1.425-5.711.663-7.138-1.865-1.542-2.519-.663-5.818 1.865-7.244l11.413-6.58-11.413-6.591c-2.528-1.532-3.407-4.715-1.865-7.233a5.225 5.225 0 0 1 7.138-1.982l19.419 11.198zM405.238 156.341c18.775 0 34.133 14.928 34.133 33.253 0 11.521-6.141 22.173-16.129 28.206.547 3.183.879 6.473.879 9.762 0 32.708-27.885 61.128-68.812 76.045v.88c21.294 13.277 34.681 32.705 34.681 54.429 0 23.598-16.022 45.759-42.792 59.262l-.665-1.425c-1.425 5.819-2.958 11.52-4.939 16.792h11.52c9.217 0 16.687 2.852 22.28 8.445 10.973 11.08 10.534 28.646 10.427 29.406l-.106 5.047H194.327l-.327-4.931c0-.771-.771-17.896 10.095-28.976 5.814-6.034 13.824-8.992 23.705-8.992h11.408c-1.646-4.727-2.964-9.666-4.276-14.928l-.439.772c-28.313-13.397-45.213-35.998-45.213-60.474 0-22.27 14.156-42.139 36.323-55.416-40.824-14.81-68.585-43.348-68.585-75.938 0-3.396.327-6.804.986-10.095-9.763-6.032-15.801-16.567-15.801-27.873 0-18.325 15.362-33.253 34.239-33.253 8.337 0 16.021 2.968 22.273 8.229 23.159-14.264 53.883-23.266 88.01-23.919L310.654 74.7l57.612 13.385c4.276-9.988 14.254-17.008 25.999-17.008 15.368 0 27.991 12.175 27.991 27.103 0 15.036-12.623 27.221-27.991 27.221-15.475 0-27.981-12.185-27.981-27.113l-48.609-11.295-19.644 53.872c32.813 1.21 62.435 9.987 84.715 23.822 6.139-5.271 14.048-8.346 22.492-8.346zm23.384 33.253c0-12.624-10.546-22.826-23.384-22.826-4.929 0-9.537 1.532-13.492 4.169 13.492 10.213 23.372 22.494 28.42 35.997 5.262-4.277 8.456-10.536 8.456-17.34zm-17.125-91.412c0-9.108-7.791-16.675-17.232-16.675-9.538 0-17.231 7.566-17.231 16.675 0 9.217 7.693 16.793 17.231 16.793 9.441 0 17.232-7.577 17.232-16.793zm1.865 129.38c0-42.244-55.084-76.59-122.79-76.59-67.713 0-122.801 34.346-122.801 76.59 0 42.245 55.088 76.604 122.801 76.604 67.706-.001 122.79-34.359 122.79-76.604zm-93.063 238.463h54.44c-.558-4.833-2.314-11.97-7.029-16.793-3.624-3.514-8.338-5.272-14.597-5.272h-15.796c-4.501 9.228-10.094 16.58-17.018 22.065zm28.644-60.911c19.098-11.629 30.297-28.528 30.297-46.199 0-16.129-9.109-30.726-23.931-41.806-.33 31.711-1.746 62.221-6.366 88.005zm-4.38-94.808c-1.33-.772-2.744-1.427-4.074-2.09-15.463 4.061-32.255 6.365-49.916 6.365-18.111 0-35.339-2.411-51.146-6.581-.766.333-1.645.547-2.303.987.331 83.405 5.818 156.375 53.662 156.375 43.232 0 53.11-59.038 53.777-155.056zM205.081 466.025h55.42c-7.024-5.38-12.623-12.838-17.012-22.065H227.8c-6.805 0-12.072 1.864-15.913 5.819-4.722 4.717-6.254 11.639-6.806 16.246zm27.326-59.701c-4.5-25.784-5.818-57.065-6.038-90.972-16.24 11.198-26.335 26.556-26.335 43.563 0 18.442 12.071 35.663 32.373 47.409zm-42.801-235.602a23.78 23.78 0 0 0-13.165-3.954c-12.951 0-23.485 10.202-23.485 22.826 0 6.698 3.075 12.839 8.123 17.114 5.155-13.492 14.923-25.783 28.527-35.986zM414.348 487.201c2.957 0 5.272 2.306 5.272 5.263 0 2.968-2.315 5.272-5.272 5.272h-27.649c-2.85 0-5.272-2.305-5.272-5.272 0-2.957 2.423-5.263 5.272-5.263h27.649zM395.915 501.358c2.957 0 5.272 2.411 5.272 5.261 0 2.97-2.315 5.381-5.272 5.381h-59.036c-2.969 0-5.264-2.411-5.264-5.381 0-2.85 2.295-5.261 5.264-5.261h59.036z"></path><path d="M339.954 260.151c2.186 1.983 2.293 5.272.213 7.352-.663.558-15.795 15.475-49.82 15.475-34.347 0-48.063-15.142-48.615-15.688-1.972-2.197-1.646-5.594.553-7.353 2.19-1.864 5.594-1.649 7.571.44.326.438 11.738 12.174 40.491 12.174 29.074 0 41.912-12.281 42.03-12.399 2.091-1.972 5.486-1.972 7.577-.001zM335.882 191.791c11.744 0 21.067 9.108 21.067 20.403 0 11.307-9.323 20.415-21.067 20.415-11.51 0-20.952-9.108-20.952-20.415 0-11.295 9.442-20.403 20.952-20.403zM248.097 191.791c11.633 0 21.063 9.108 21.063 20.403 0 11.307-9.431 20.415-21.063 20.415s-21.067-9.108-21.067-20.415c-.001-11.295 9.435-20.403 21.067-20.403zM188.074 17.09c.766 2.851-.991 5.809-3.735 6.473l-9.436 2.637c-2.851.653-5.813-.986-6.473-3.848-.771-2.743.878-5.701 3.729-6.473l9.436-2.518c2.744-.771 5.708.986 6.479 3.729zM174.903 40.023c.771 2.852-.985 5.701-3.729 6.473-2.855.771-5.819-.985-6.585-3.729l-2.417-9.323c-.766-2.743.879-5.711 3.734-6.483 2.852-.761 5.707.997 6.473 3.847l2.524 9.215zM168.87 396.229c2.523 2.519 4.168 6.032 4.168 9.882 0 3.942-1.645 7.458-4.168 9.976-2.523 2.529-6.039 4.179-9.988 4.179-3.842 0-7.352-1.649-9.875-4.179-2.524-2.518-4.168-6.033-4.168-9.976 0-3.85 1.645-7.363 4.168-9.882 2.523-2.528 6.033-4.168 9.875-4.168 3.949.001 7.465 1.64 9.988 4.168zm-6.478 9.882c0-.88-.434-1.759-.986-2.423-.659-.654-1.538-.985-2.524-.985-.878 0-1.758.331-2.411.985a3.431 3.431 0 0 0-.991 2.423c0 .984.332 1.864.991 2.517.653.547 1.533.986 2.411.986.986 0 1.865-.439 2.524-.986.552-.652.986-1.532.986-2.517zM167.552 12.804c.767 2.861-.879 5.712-3.729 6.483-2.856.762-5.706-.879-6.478-3.74l-2.412-8.884c-.771-2.851.985-5.712 3.729-6.473 2.856-.772 5.819.878 6.585 3.729l2.305 8.885zM161.625 24.217c.767 2.861-.878 5.712-3.729 6.483l-9.656 2.626c-2.743.663-5.706-.986-6.478-3.837-.766-2.743.879-5.712 3.735-6.473l9.655-2.529c2.851-.76 5.707.879 6.473 3.73zM60.666 190.14l2.855 9.548-10.095 3.077-2.855-9.549zM47.607 183.668l2.857 9.548-10.095 2.958-2.857-9.538z"></path></g><!----></svg>